# xmcd
#
# Track frame offsets: 
#        150
#        13248
#        27088
#        40813
#        51575
#        68170
#        77906
#        91633
#        104103
#        119493
#        133881
#        147615
#        157392
#        172539
#        184682
#        195917
#
# Disc length: 2780 seconds
#
# Revision: 0
# Processed by: cddbd v1.4PL0 Copyright (c) Steve Scherf et al.
# Submitted via: ExactAudioCopy v0.90b4
#
DISCID=e30ada10
DTITLE=Eva Eastwood and Major Keys - The Good Life I have
DYEAR=1900
DGENRE=Swing
TTITLE0=The Good Life I have
TTITLE1=High for the P.T
TTITLE2=A Remember of you
TTITLE3=Goodbye City
TTITLE4=A World of our Own
TTITLE5=Our Love is true
TTITLE6=A Millionaire of the simple Things
TTITLE7=The Chase
TTITLE8=Grandaddyo´
TTITLE9=How Keith Calloway died
TTITLE10=King for a Day
TTITLE11=Good Times to go
TTITLE12=Highway 65
TTITLE13=Who put the Good in Goodbye
TTITLE14=Big Brother
TTITLE15=First Kiss
EXTD=listed by Mauerspecht@01019freenet.de\nGermany
EXTT0=
EXTT1=
EXTT2=
EXTT3=
EXTT4=
EXTT5=
EXTT6=
EXTT7=
EXTT8=
EXTT9=
EXTT10=
EXTT11=
EXTT12=
EXTT13=
EXTT14=
EXTT15=
PLAYORDER=
